<svg width="223" height="93" viewBox="0 0 223 93" fill="none" xmlns="http://www.w3.org/2000/svg">
<path fill-rule="evenodd" clip-rule="evenodd" d="M96.9133 56.3124H89.7216L88.5715 60.0464H83.6509L90.6242 38.919H96.0544L103.042 60.0464H98.0634L96.9133 56.3124ZM95.705 52.339L93.3175 44.5998L90.959 52.339H95.705ZM104.353 49.4508C104.353 47.3604 104.76 45.5094 105.59 43.8658C106.42 42.2381 107.555 40.9616 109.04 40.036C110.511 39.1265 112.185 38.6797 114.048 38.6797C116.334 38.6797 118.299 39.3339 119.93 40.6584C121.56 41.9828 122.637 43.786 123.191 46.0838H118.023C117.644 45.1902 117.105 44.52 116.392 44.0573C115.693 43.5945 114.893 43.3711 113.99 43.3711C112.549 43.3711 111.37 43.9136 110.481 45.0307C109.579 46.1317 109.128 47.5998 109.128 49.4508C109.128 51.3018 109.579 52.7699 110.481 53.8709C111.37 54.972 112.549 55.5305 113.99 55.5305C114.893 55.5305 115.693 55.2911 116.392 54.8443C117.105 54.3816 117.644 53.7114 118.023 52.8178H123.191C122.637 55.1156 121.56 56.9028 119.93 58.2272C118.299 59.5357 116.334 60.19 114.048 60.19C112.185 60.19 110.511 59.7432 109.04 58.8177C107.555 57.9081 106.42 56.6475 105.59 55.0199C104.76 53.3922 104.353 51.5412 104.353 49.4508ZM138.069 56.3124H130.877L129.727 60.0464H124.807L131.78 38.919H137.225L144.198 60.0464H139.234L138.069 56.3124ZM136.861 52.339L134.473 44.5998L132.115 52.339H136.861ZM153.53 38.919C155.568 38.919 157.344 39.3499 158.858 40.2435C160.387 41.1211 161.551 42.3658 162.396 43.9615C163.225 45.5572 163.633 47.3923 163.633 49.4827C163.633 51.5412 163.225 53.3763 162.396 54.9879C161.551 56.5996 160.372 57.8443 158.843 58.7219C157.315 59.5996 155.553 60.0464 153.53 60.0464H146.309V38.919H153.53ZM153.239 55.5943C155.015 55.5943 156.398 55.0518 157.373 53.9986C158.363 52.9295 158.858 51.4295 158.858 49.4827C158.858 47.5359 158.363 46.02 157.373 44.9349C156.398 43.8498 155.015 43.3073 153.239 43.3073H151.011V55.5943H153.239ZM170.97 43.036V47.3125H177.259V51.2859H170.97V55.9135H178.089V60.0464H166.283V38.919H178.089V43.036H170.97ZM202.969 38.919V60.0464H198.267V47.3764L193.958 60.0464H190.173L185.834 47.3444V60.0464H181.132V38.919H186.679L192.094 53.5358L197.437 38.919H202.969ZM222.87 38.919L216.202 53.0571V60.0464H211.5V53.0571L204.833 38.919H210.161L213.888 47.7593L217.6 38.919H222.87Z" fill="#244E8E"/>
<path fill-rule="evenodd" clip-rule="evenodd" d="M89.4013 29.8716H93.9143V32.7917H85.951V17.2654H89.4013V29.8716ZM104.382 30.0471H99.097L98.2526 32.7917H94.6422L99.7667 17.2654H103.756L108.88 32.7917H105.226L104.382 30.0471ZM103.494 27.1269L101.747 21.4462L99.9996 27.1269H103.494ZM118.154 29.8716H122.681V32.7917H114.703V17.2654H118.154V29.8716ZM133.148 30.0471H127.864L127.019 32.7917H123.409L128.534 17.2654H132.522L137.647 32.7917H133.993L133.148 30.0471ZM132.26 27.1269L130.499 21.4462L128.766 27.1269H132.26ZM151.87 32.7917H148.42L142.655 23.2174V32.7917H139.205V17.2654H142.655L148.42 26.8876V17.2654H151.87V32.7917ZM163.764 22.1802C163.517 21.6536 163.153 21.2706 162.672 20.9994C162.192 20.7121 161.624 20.5845 160.984 20.5845C159.863 20.5845 158.974 20.9834 158.305 21.7813C157.635 22.5951 157.286 23.6642 157.286 25.0046C157.286 26.4408 157.65 27.5578 158.348 28.3556C159.062 29.1535 160.023 29.5524 161.26 29.5524C162.119 29.5524 162.832 29.329 163.415 28.8503C163.997 28.3875 164.419 27.7014 164.696 26.8237H160.314V24.0312H167.826V27.5418C167.564 28.4833 167.127 29.3609 166.516 30.1747C165.904 30.9886 165.133 31.6428 164.186 32.1534C163.255 32.6481 162.192 32.9034 160.998 32.9034C159.6 32.9034 158.363 32.5683 157.257 31.8981C156.165 31.2279 155.306 30.2864 154.694 29.0897C154.083 27.9088 153.777 26.5365 153.777 25.0046C153.777 23.4727 154.083 22.1004 154.694 20.9036C155.306 19.7068 156.165 18.7653 157.257 18.0951C158.348 17.4249 159.586 17.0898 160.984 17.0898C162.672 17.0898 164.114 17.5366 165.264 18.4302C166.428 19.3398 167.2 20.5845 167.578 22.1802H163.764ZM173.125 17.2654V26.5525C173.125 27.478 173.329 28.1961 173.751 28.6907C174.173 29.2014 174.785 29.4407 175.585 29.4407C176.401 29.4407 177.012 29.2014 177.449 28.6907C177.871 28.1961 178.089 27.478 178.089 26.5525V17.2654H181.54V26.5365C181.54 27.9088 181.263 29.0897 180.739 30.0471C180.2 31.0045 179.472 31.7226 178.57 32.2173C177.653 32.696 176.648 32.9353 175.527 32.9353C174.406 32.9353 173.416 32.696 172.528 32.2173C171.655 31.7385 170.956 31.0205 170.446 30.063C169.937 29.0897 169.675 27.9088 169.675 26.5365V17.2654H173.125ZM192.778 30.0471H187.494L186.649 32.7917H183.024L188.149 17.2654H192.152L197.277 32.7917H193.623L192.778 30.0471ZM191.89 27.1269L190.129 21.4462L188.396 27.1269H191.89ZM208.225 22.1802C207.977 21.6536 207.599 21.2706 207.133 20.9994C206.652 20.7121 206.085 20.5845 205.444 20.5845C204.323 20.5845 203.435 20.9834 202.765 21.7813C202.081 22.5951 201.746 23.6642 201.746 25.0046C201.746 26.4408 202.11 27.5578 202.809 28.3556C203.522 29.1535 204.483 29.5524 205.721 29.5524C206.565 29.5524 207.293 29.329 207.875 28.8503C208.457 28.3875 208.88 27.7014 209.156 26.8237H204.774V24.0312H212.286V27.5418C212.024 28.4833 211.587 29.3609 210.976 30.1747C210.365 30.9886 209.593 31.6428 208.647 32.1534C207.715 32.6481 206.652 32.9034 205.459 32.9034C204.061 32.9034 202.824 32.5683 201.717 31.8981C200.625 31.2279 199.766 30.2864 199.155 29.0897C198.543 27.9088 198.238 26.5365 198.238 25.0046C198.238 23.4727 198.543 22.1004 199.155 20.9036C199.766 19.7068 200.625 18.7653 201.717 18.0951C202.794 17.4249 204.046 17.0898 205.444 17.0898C207.133 17.0898 208.559 17.5366 209.724 18.4302C210.889 19.3398 211.66 20.5845 212.039 22.1802H208.225ZM217.644 20.2972V23.4408H222.273V26.361H217.644V29.7599H222.87V32.7917H214.193V17.2654H222.87V20.2972H217.644Z" fill="#355696"/>
<path fill-rule="evenodd" clip-rule="evenodd" d="M1.19373 56.5047L1.1355 63.7173L1.17917 62.7439L1.32475 61.7706L1.55768 60.8131L1.87796 59.8876L2.28559 58.9621L2.78056 58.0685L3.36289 57.1749L4.03256 56.3132L4.76047 55.4834L5.57572 54.6537L6.46376 53.8558L7.4246 53.0898L8.45822 52.3399L9.55008 51.6218L10.7147 50.9356L11.9376 50.2814L13.2187 49.6431L14.5435 49.0527L15.9411 48.4942L17.3823 47.9676L18.8818 47.4729L20.425 47.0102L22.0264 46.5953L23.6569 46.2123L25.3311 45.8612L27.0344 45.574L28.7959 45.3187L30.572 45.0953L32.3917 44.9357L34.2406 44.8081L36.1041 44.7442L38.0112 44.7123L39.9037 44.7442L41.7817 44.8081L43.6306 44.9357L45.4358 45.0953L47.2264 45.3187L48.9734 45.574L50.6913 45.8612L52.3655 46.2123L53.996 46.5953L55.5828 47.0102L57.126 47.4729L58.6254 47.9676L60.0667 48.4942L61.4643 49.0527L62.8036 49.6431L64.0847 50.2814L65.3076 50.9356L66.4723 51.6218L67.5641 52.3399L68.5832 53.0898L69.544 53.8558L70.4321 54.6537L71.2473 55.4834L71.9898 56.3132L72.6449 57.1749L73.2272 58.0685L73.7222 58.9621L74.1444 59.8876L74.4647 60.8131L74.6976 61.7706L74.8432 62.7439L74.8868 63.7173L74.8432 64.6907L74.9014 57.4781L74.9451 56.5047L74.9014 55.5313L74.7558 54.5579L74.5229 53.6164L74.2026 52.675L73.795 51.7654L73.3 50.8558L72.7177 49.9782L72.048 49.1165L71.3201 48.2708L70.5049 47.457L69.6168 46.6591L68.656 45.8772L67.6224 45.1432L66.5305 44.4251L65.3658 43.7389L64.143 43.0687L62.8764 42.4464L61.5371 41.84L60.1395 41.2815L58.6982 40.7549L57.1987 40.2603L55.6556 39.7975L54.0542 39.3826L52.4237 38.9996L50.7495 38.6645L49.0462 38.3614L47.2847 38.106L45.5086 37.8986L43.6888 37.7231L41.84 37.6114L39.9765 37.5316L38.0694 37.5156L36.1768 37.5316L34.2989 37.6114L32.45 37.7231L30.6448 37.8986L28.8541 38.106L27.1072 38.3614L25.3893 38.6645L23.7151 38.9996L22.0846 39.3826L20.4978 39.7975L18.9546 40.2603L17.4551 40.7549L16.0139 41.2815L14.6163 41.84L13.277 42.4464L11.9958 43.0687L10.773 43.7389L9.60831 44.4251L8.51646 45.1432L7.49739 45.8772L6.53655 46.6591L5.64851 47.457L4.83326 48.2708L4.09079 49.1165L3.43568 49.9782L2.85335 50.8558L2.35838 51.7654L1.93619 52.675L1.61592 53.6164L1.38299 54.5579L1.2374 55.5313L1.19373 56.5047Z" fill="#99BE2B"/>
<path fill-rule="evenodd" clip-rule="evenodd" d="M38.0694 0L10.8603 7.45201C7.93416 8.24987 5.88147 11.1541 5.88147 14.4732V59.3767C5.88147 75.5892 34.8521 92.073 38.0694 92.073C41.2868 92.073 70.2574 75.5892 70.2574 59.3767V14.4732C70.2574 11.1541 68.2047 8.24987 65.2931 7.45201L38.0694 0Z" fill="#244E8E"/>
<path fill-rule="evenodd" clip-rule="evenodd" d="M37.9966 87.8448C36.0604 87.1746 29.3491 83.696 22.303 77.8716C14.1505 71.1536 9.75391 64.5792 9.75391 59.3772V14.4737C9.75391 13.0535 10.54 11.8407 11.7775 11.4897L38.0403 4.29297L64.3031 11.4897C65.5551 11.8407 66.3849 13.0535 66.3849 14.4737V59.3772C66.3849 64.5792 61.9156 71.1536 53.7631 77.8716C46.7024 83.696 39.9183 87.1746 37.9966 87.8448Z" fill="#99BE2B"/>
<path fill-rule="evenodd" clip-rule="evenodd" d="M38.0548 7.4202L12.9712 14.2978C12.549 14.4254 12.2724 14.8563 12.2724 15.3988V58.9779C12.2724 63.414 16.4652 69.4139 23.7879 75.4617C30.2226 80.7595 36.1186 83.8392 38.0111 84.653C39.9183 83.8392 45.8871 80.7435 52.3072 75.4617C55.9758 72.4298 58.8729 69.4139 60.8819 66.5416C62.8473 63.7331 63.8809 61.1162 63.8809 58.9779V15.3988C63.8809 14.8563 63.5897 14.4254 63.1384 14.2978L38.0548 7.4202ZM38.0111 85.3392L37.9092 85.3073C36.1186 84.5573 30.0479 81.4297 23.4239 75.9723C19.7262 72.9245 16.8145 69.8926 14.791 66.9565C12.7237 64.0044 11.6755 61.3077 11.6755 58.9779V15.3988C11.6755 14.5531 12.1414 13.8669 12.8256 13.6754L38.0548 6.75L38.1131 6.78191L63.2695 13.6754C63.9828 13.8669 64.4632 14.569 64.4632 15.3988V58.9779C64.4632 61.2917 63.415 63.9725 61.3478 66.9246C59.2951 69.8607 56.3689 72.9085 52.6566 75.9723C46.0618 81.4137 39.9183 84.5573 38.1131 85.3073L38.0111 85.3392Z" fill="#FEFEFE"/>
<path fill-rule="evenodd" clip-rule="evenodd" d="M9.75391 51.509C18.1394 46.3549 28.2281 44.8708 38.2004 44.6953C47.6778 44.823 58.014 46.4825 66.3849 51.6207V59.3759C66.3849 64.578 61.9156 71.1523 53.7631 77.8703C46.7024 83.6947 39.9183 87.1734 37.9966 87.8436C36.0604 87.1734 29.3491 83.6947 22.303 77.8703C14.1505 71.1523 9.75391 64.578 9.75391 59.3759V51.509Z" fill="#FEFEFE"/>
<path fill-rule="evenodd" clip-rule="evenodd" d="M43.6161 30.0625L45.4941 23.7116L47.3284 30.0625H43.6161ZM48.8424 13.6426H42.1311L35.3762 35.5837H27.9952V13.6426H21.2839V42.7325H33.1779H39.8892H39.9183V42.6368L43.0046 32.1529L45.1156 37.2273H49.4539L51.0553 42.7325H57.7665L48.8424 13.6426Z" fill="#244E8E"/>
<path fill-rule="evenodd" clip-rule="evenodd" d="M44.111 29.6644H46.8333L45.4794 25.0368L44.111 29.6644ZM47.3283 30.4782H43.616C43.485 30.4782 43.3831 30.4144 43.3103 30.3027C43.2375 30.207 43.2229 30.0634 43.2521 29.9357L45.1446 23.5847C45.1883 23.4252 45.3339 23.3135 45.494 23.3135C45.6541 23.3135 45.7852 23.4252 45.8434 23.5847L47.6777 29.9517C47.7214 30.0634 47.7068 30.207 47.634 30.3027C47.5613 30.4144 47.4448 30.4782 47.3283 30.4782ZM51.3318 42.3344H57.2569L48.5803 14.0423H42.3931L35.7255 35.7122C35.6673 35.8877 35.5363 35.9994 35.3761 35.9994H27.9952C27.7913 35.9994 27.6312 35.8079 27.6312 35.5845V14.0423H21.6478V42.3344H39.6125L42.6552 32.042C42.6988 31.8825 42.8299 31.7708 42.99 31.7548C43.1356 31.7389 43.2812 31.8346 43.3394 31.9942L45.3484 36.8132H49.4538C49.6139 36.8132 49.745 36.9249 49.8032 37.1005L51.3318 42.3344ZM57.7665 43.1483H51.0552C50.8951 43.1483 50.764 43.0366 50.7058 42.861L49.1772 37.6271H45.1155C44.9699 37.6271 44.8389 37.5313 44.7807 37.3877L43.0628 33.2708L40.2822 42.7174V42.7334C40.2822 42.9727 40.1221 43.1483 39.9182 43.1483H21.2839C21.0801 43.1483 20.9199 42.9727 20.9199 42.7334V13.6434C20.9199 13.42 21.0801 13.2285 21.2839 13.2285H27.9952C28.199 13.2285 28.3737 13.42 28.3737 13.6434V35.1856H35.1141L41.7817 13.4998C41.8399 13.3402 41.9709 13.2285 42.1311 13.2285H48.8424C49.0025 13.2285 49.1481 13.3402 49.1918 13.4998L58.1159 42.6057C58.1595 42.7334 58.145 42.877 58.0722 42.9727C57.9994 43.0844 57.8829 43.1483 57.7665 43.1483Z" fill="#FEFEFE"/>
<path fill-rule="evenodd" clip-rule="evenodd" d="M76.037 57.5092L75.9787 64.7219L75.8186 65.7112L75.5857 66.7006L75.2508 67.658L74.8287 68.5995L74.3046 69.5409L73.7077 70.4505L73.038 71.3281L72.2664 72.2058L71.4366 73.0515L70.5194 73.8653L69.5295 74.6632L68.4668 75.4291L67.3458 76.1632L66.152 76.8812L64.8855 77.5674L63.5607 78.2057L62.1922 78.828L60.751 79.4025L59.266 79.945L57.7229 80.4557L56.1215 80.9344L54.491 81.3652L52.8022 81.7641L51.0844 82.1152L49.3083 82.4184L47.5031 82.6737L45.6688 82.8971L43.7908 83.0726L41.8982 83.2003L39.962 83.2641L38.0112 83.296L36.0459 83.2641L34.1242 83.2003L32.2171 83.0726L30.3536 82.8971L28.5048 82.6737L26.6996 82.4184L24.938 82.1152L23.2056 81.7641L21.5314 81.3652L19.8864 80.9344L18.2995 80.4557L16.7564 79.945L15.2569 79.4025L13.8302 78.828L12.4472 78.2057L11.1224 77.5674L9.87039 76.8812L8.67663 76.1632L7.5411 75.4291L6.49291 74.6632L5.50296 73.8653L4.5858 73.0515L3.74143 72.2058L2.98441 71.3281L2.30018 70.4505L1.7033 69.5409L1.19376 68.5995L0.771579 67.658L0.436743 66.7006L0.189255 65.7112L0.0436743 64.7219L0 63.7166L0.0582324 56.5039L0.116465 57.5092L0.262046 58.5145L0.494976 59.4879L0.829812 60.4453L1.252 61.4028L1.76153 62.3283L2.37297 63.2378L3.04264 64.1314L3.81422 64.9931L4.64403 65.8389L5.5612 66.6527L6.55115 67.4505L7.61389 68.2165L8.73486 68.9665L9.92863 69.6686L11.1952 70.3548L12.52 71.009L13.8884 71.6154L15.3297 72.2058L16.8146 72.7483L18.3578 73.259L19.9592 73.7217L21.5897 74.1526L23.2784 74.5515L24.9963 74.9026L26.7724 75.2057L28.5776 75.477L30.4119 75.6845L32.2899 75.86L34.1824 75.9876L36.1187 76.0674L38.0694 76.0834L40.0348 76.0674L41.9565 75.9876L43.8636 75.86L45.727 75.6845L47.5759 75.477L49.3811 75.2057L51.1426 74.9026L52.875 74.5515L54.5492 74.1526L56.1943 73.7217L57.7811 73.259L59.3243 72.7483L60.8238 72.2058L62.2504 71.6154L63.6335 71.009L64.9583 70.3548L66.2103 69.6686L67.404 68.9665L68.5396 68.2165L69.5877 67.4505L70.5777 66.6527L71.4948 65.8389L72.3392 64.9931L73.0962 64.1314L73.7805 63.2378L74.3773 62.3283L74.8869 61.4028L75.3091 60.4453L75.6439 59.4879L75.8914 58.5145L76.037 57.5092Z" fill="#244E8E"/>
<path fill-rule="evenodd" clip-rule="evenodd" d="M10.8312 75.5411L12.6946 76.4826V75.7485L11.5008 75.1581V72.0145L10.8312 71.6794V75.5411ZM15.1549 76.5783L15.3879 77.6634L16.1303 77.9825L15.184 73.706L14.2814 73.323L13.3352 76.8017L14.0631 77.1049L14.2669 76.1953L15.1549 76.5783ZM14.3688 75.5889L14.5581 74.839C14.6017 74.6475 14.66 74.3762 14.6891 74.1528L14.7036 74.1688C14.7473 74.4081 14.8055 74.7273 14.8638 74.9666L15.053 75.8762L14.3688 75.5889ZM17.688 78.5091V77.3442C17.688 76.7219 17.6735 76.1634 17.6444 75.6528H17.6735C17.8191 76.1474 18.0229 76.706 18.2121 77.1847L18.8818 78.8761L19.6388 79.0995V75.2379L18.9837 75.0464V76.1634C18.9837 76.7538 18.9983 77.2804 19.0419 77.807L19.0274 77.791C18.8818 77.3123 18.7071 76.7857 18.5179 76.323L17.8627 74.6953L17.0329 74.44V78.3176L17.688 78.5091ZM23.3948 77.8868L22.2156 77.5996V78.2698L22.7106 78.3974V79.2112C22.6524 79.2272 22.5213 79.2112 22.3612 79.1793C21.7643 79.0197 21.3421 78.4612 21.3421 77.6634C21.3421 76.8177 21.808 76.5145 22.4049 76.674C22.7543 76.7538 22.9726 76.8815 23.1473 77.0091L23.2929 76.3389C23.1328 76.2272 22.8271 76.0517 22.4049 75.94C21.3712 75.6847 20.5997 76.2272 20.5851 77.5198C20.5851 78.0942 20.7452 78.6368 21.0364 79.0357C21.3276 79.4506 21.7498 79.7219 22.3321 79.8655C22.7543 79.9772 23.1764 79.9453 23.3948 79.9133V77.8868ZM24.4576 76.4506V78.6049C24.4576 79.8336 24.9234 80.4719 25.7387 80.6155C26.583 80.775 27.078 80.2963 27.078 79.1155V76.9453L26.3501 76.8017V79.0197C26.3501 79.7219 26.1463 79.9931 25.7678 79.9293C25.3893 79.8495 25.1855 79.4825 25.1855 78.8123V76.5943L24.4576 76.4506ZM29.7422 80.1687L29.9896 81.1899L30.7758 81.2857L29.7713 77.2964L28.8104 77.1847L27.8205 80.9346L28.5775 81.0144L28.8104 80.057L29.7422 80.1687ZM28.9123 79.4187L29.1162 78.6208C29.1598 78.3974 29.2181 78.1102 29.2617 77.8868H29.2763C29.32 78.1261 29.3782 78.4293 29.4219 78.6527L29.6257 79.4985L28.9123 79.4187ZM34.2988 79.3548L33.0905 79.2751V79.9612L33.5855 79.9931V80.807C33.5273 80.8229 33.3962 80.8389 33.2361 80.8229C32.6247 80.775 32.2025 80.2963 32.2025 79.4985C32.2025 78.6527 32.6683 78.2698 33.2943 78.3176C33.6437 78.3336 33.8621 78.4134 34.0368 78.5251L34.1969 77.8389C34.0368 77.7432 33.7165 77.6155 33.2943 77.5836C32.2316 77.5198 31.4455 78.19 31.4309 79.4825C31.4309 80.041 31.6056 80.5676 31.8968 80.9187C32.1879 81.2857 32.6247 81.4931 33.2215 81.525C33.6437 81.5569 34.0805 81.4612 34.2988 81.3814V79.3548ZM37.3124 79.307L36.1040 79.291V78.4772L37.3852 78.4932V77.7751L35.3761 77.7591V81.6208L37.4434 81.6527V80.9346L36.104 80.9187V79.9931L37.3124 80.0091V79.307ZM43.0774 80.4719L43.3249 81.4452L44.1256 81.3974L43.1065 77.5996L42.1457 77.6634L41.1557 81.5889L41.9127 81.541L42.1457 80.5357L43.0774 80.4719ZM42.2476 79.8814L42.4514 79.0357C42.4951 78.8123 42.5533 78.5251 42.597 78.2857H42.6115C42.6552 78.5091 42.7134 78.7963 42.7717 79.0197L42.9755 79.8336L42.2476 79.8814ZM47.3138 80.2325C47.1682 80.3282 46.9353 80.408 46.7023 80.4399C46.0618 80.5197 45.6687 80.0729 45.6687 79.307C45.6687 78.4453 46.12 77.9666 46.7023 77.9027C46.9644 77.8708 47.1682 77.9187 47.3138 77.9666L47.4739 77.2485C47.3429 77.2006 47.0517 77.1368 46.6732 77.1847C45.6833 77.3123 44.8971 78.1421 44.8971 79.4506C44.8971 80.5516 45.4795 81.3176 46.6004 81.174C46.9935 81.1261 47.2992 80.9984 47.4302 80.9027L47.3138 80.2325ZM50.1235 79.5942L50.371 80.5516L51.1571 80.408L50.1526 76.7219L49.2063 76.8974L48.2164 80.9346L48.9734 80.807L49.1918 79.7697L50.1235 79.5942ZM49.3082 79.0995L49.4975 78.2378C49.5412 78.0144 49.5994 77.7113 49.6431 77.4719H49.6576C49.7013 77.6793 49.7595 77.9666 49.8178 78.174L50.007 78.9719L49.3082 79.0995ZM52.0743 80.2006C52.249 80.2006 52.511 80.1527 52.8895 80.0729C53.5155 79.9133 54.0396 79.6261 54.3745 79.2112C54.6656 78.8283 54.8986 78.2538 54.8986 77.5198C54.8986 76.8336 54.6802 76.4187 54.3599 76.1953C54.0542 75.9879 53.6466 75.956 53.0497 76.0996C52.6857 76.1794 52.3363 76.2911 52.0743 76.4187V80.2006ZM52.7876 76.8655C52.8604 76.8336 52.9623 76.7857 53.1225 76.7538C53.7485 76.5943 54.127 76.9294 54.127 77.7272C54.127 78.6527 53.7048 79.1953 53.0497 79.3548C52.9623 79.3708 52.8604 79.3868 52.7876 79.3868V76.8655ZM57.7228 76.3389L56.5582 76.706V75.9081L57.7956 75.5251V74.807L55.8448 75.4134V79.2751L57.8539 78.6527V77.9347L56.5582 78.3336V77.424L57.7228 77.057V76.3389ZM61.4934 77.3283L62.1776 77.057L62.0029 73.2592L61.0858 73.6103L60.7655 75.0145C60.649 75.4932 60.5471 76.0357 60.4598 76.5145L60.4452 76.5304C60.3724 76.0996 60.2851 75.6528 60.1831 75.2379L59.8774 74.073L58.9457 74.4241L58.7419 78.3655L59.397 78.1102L59.4552 76.6262C59.4698 76.1315 59.4989 75.5251 59.5135 74.9985C59.6008 75.4772 59.7027 75.9879 59.8046 76.4028L60.1249 77.7751L60.6781 77.5676L61.0566 75.924C61.1731 75.4134 61.3041 74.823 61.406 74.2805H61.4206C61.4206 74.8549 61.4206 75.3975 61.4351 75.8602L61.4934 77.3283ZM64.5215 75.8762V74.2645L65.4969 71.5039L64.7544 71.9028L64.4487 72.9879C64.3613 73.3071 64.2885 73.5624 64.2157 73.8496C64.143 73.6262 64.0702 73.4507 63.9828 73.2273L63.6771 72.4613L62.9055 72.8603L63.8518 74.6475V76.2272L64.5215 75.8762Z" fill="#FEFEFE"/>
<path fill-rule="evenodd" clip-rule="evenodd" d="M70.2574 46.084C73.9552 49.0999 76.0806 52.6743 76.0806 56.504C76.0806 67.323 59.0622 76.0835 38.0694 76.0835C17.0767 76.0835 0.0582275 67.323 0.0582275 56.504C0.0582275 52.6743 2.19827 49.0999 5.88147 46.084V47.2329C2.89706 49.9775 1.19376 53.1371 1.19376 56.504C1.19376 67.8815 18.6053 74.2006 36.4972 74.4878C55.4518 74.8069 74.9451 68.4241 74.9451 56.504C74.9451 53.1371 73.2418 49.9775 70.2574 47.2329V46.084Z" fill="#FEFEFE"/>
<path fill-rule="evenodd" clip-rule="evenodd" d="M44.6352 50.4716C44.3732 50.4716 44.1548 50.4237 44.1111 50.1684C44.082 49.8812 44.2712 49.594 44.5333 49.5301C44.6352 49.5142 44.7371 49.5301 44.839 49.562C45.2612 49.7535 45.1011 50.4716 44.6352 50.4716ZM56.1215 51.6684C54.8987 51.6205 53.6903 51.6046 52.4675 51.6205C51.3028 51.6365 50.1382 51.812 48.959 51.812C48.6969 51.812 48.464 51.6205 48.4058 51.3492C48.1146 50.1684 46.9499 47.2323 42.2913 47.5514C42.2186 47.5674 42.204 47.6631 42.2477 47.6951C42.5243 47.9025 42.9756 48.3014 42.7426 48.6844C42.7281 48.7004 42.699 48.7163 42.6699 48.7163C42.4369 48.6365 41.3742 48.3014 40.7045 48.6365C40.6463 48.6525 40.6463 48.7482 40.7191 48.7801C41.1121 48.9078 42.0875 49.2589 42.2186 49.6099C42.2331 49.6418 42.2186 49.6897 42.1894 49.7057C41.8837 49.8652 40.3114 50.8546 40.5298 54.5407C40.5444 54.6205 40.4716 54.6524 40.4279 54.6205C39.6418 53.8864 35.2161 50.1525 27.7624 51.6205C27.4421 51.6843 27.1655 51.9237 27.0345 52.2588L23.2348 62.7746C23.1329 63.0778 23.3658 63.3969 23.657 63.3331L24.5159 63.1576C24.8653 63.0778 25.1565 62.8384 25.3166 62.4874L29.1891 53.8705C29.3201 53.5833 29.5821 53.3758 29.8733 53.3439C31.693 53.1045 38.3315 52.562 40.5444 56.5832C40.3842 56.3279 38.0549 52.7535 30.4411 54.6045C30.1499 54.6843 29.8878 54.9077 29.7423 55.2109L25.2293 65.3437C25.2001 65.4075 25.2584 65.4714 25.3166 65.4554C25.9717 65.1841 28.5339 64.2427 31.0962 64.4022C33.571 64.6256 32.7558 66.2054 32.7558 66.2054C32.0861 67.5298 30.4265 70.5458 28.1409 72.8276C27.9953 72.9712 28.1263 73.2266 28.301 73.1627C28.6504 73.051 28.9998 72.9393 29.3492 72.8117C30.8487 72.2532 32.319 71.5511 33.7021 70.7053C33.7021 70.7053 36.7884 68.8543 39.569 66.3171 41.5343 63.0778 42.5388 61.4342 43.0193 59.5991 43.8636 57.8917 44.8099 55.9768 46.586 54.429 48.4203 53.7269 48.7406 53.5992 49.2792 53.4556 49.6141 53.3918 51.7541 52.9928 53.8796 52.6099 56.0196 52.2109 56.2671 52.1631 56.5292 52.1152 56.7767 52.0673 56.864 52.0514 56.9659 52.0354 57.0533 52.0195 57.1406 51.9875 57.2425 51.9237 57.3008 51.8439 57.2716 51.8918 56.2526 51.6684 56.1215 51.6684Z" fill="#FEFEFE"/>
<path fill-rule="evenodd" clip-rule="evenodd" d="M44.5624 49.7709C44.5333 49.7709 44.5042 49.7868 44.475 49.8188C44.4168 49.8666 44.3877 49.9305 44.3877 50.0102C44.3877 50.1539 44.4896 50.2656 44.6061 50.2656C44.7371 50.2656 44.839 50.1539 44.839 50.0102C44.839 49.8826 44.7371 49.7709 44.6061 49.7709C44.5915 49.7709 44.5769 49.7709 44.5624 49.7709ZM44.6352 51.1911C43.6743 51.207 43.4996 50.5528 43.4705 50.2656C43.3832 49.5954 43.7908 48.9571 44.4022 48.8294C44.6352 48.7815 44.8681 48.7975 45.0865 48.8932C45.5523 49.1007 45.8144 49.6432 45.727 50.2017C45.6251 50.7921 45.1738 51.1911 44.6352 51.1911ZM31.1544 52.0049C30.1499 52.0049 29.0434 52.1006 27.8788 52.34C27.7769 52.3559 27.6895 52.4198 27.6604 52.5315L24.0355 62.5207L24.3994 62.4409C24.545 62.409 24.6615 62.3132 24.7197 62.1696L28.6067 53.5527C28.8396 53.0262 29.2764 52.691 29.7859 52.6272C30.8487 52.4836 32.9596 52.3081 35.1578 52.6591C35.3908 52.691 35.6383 52.7389 35.8712 52.7868C34.5755 52.34 33.0033 52.0049 31.1544 52.0049ZM33.3672 66.4781C33.3526 66.51 33.3526 66.5259 33.3381 66.5578C32.8431 67.5472 31.6493 69.7333 30.0043 71.7918C31.1544 71.3131 32.2899 70.7386 33.3818 70.0684C36.5845 68.1536 39.205 65.6004 40.9956 62.6803C41.5489 61.7707 41.9274 60.7813 42.335 59.7441C42.6262 59.0261 42.9173 58.2761 43.2813 57.558C44.2712 55.5633 46.1492 53.84 48.2019 53.0421C48.5659 52.8985 49.1482 52.7389 49.4976 52.6751L50.6913 52.4517C50.1236 52.4996 49.5413 52.5474 48.9589 52.5474C48.4057 52.5474 47.9107 52.1325 47.7652 51.5262C47.5322 50.5687 46.6588 48.4624 43.4414 48.2709C43.5142 48.6858 43.3541 48.989 43.2958 49.0847C43.1939 49.2603 43.0338 49.372 42.8591 49.4198C42.9464 49.7868 42.7863 50.1858 42.466 50.3613C42.3204 50.4411 40.9956 51.223 41.1995 54.4942C41.214 54.8293 41.0539 55.1325 40.7918 55.2761C40.7045 55.324 40.6171 55.3399 40.5298 55.3559C40.7482 55.6272 40.9374 55.8984 41.0976 56.2016C41.2868 56.5367 41.1995 56.9835 40.8937 57.191C40.588 57.3984 40.195 57.3186 39.9911 56.9835C39.9766 56.9516 39.4379 56.1059 38.0404 55.4836C36.7301 54.8931 34.3717 54.3985 30.5866 55.324C30.4847 55.3399 30.3828 55.4197 30.3391 55.5314L26.423 64.3079C27.6168 63.9568 29.3783 63.5739 31.1398 63.6696H31.1544C32.3045 63.7813 33.0469 64.1802 33.3672 64.8664C33.702 65.5685 33.4691 66.2547 33.3672 66.4781ZM28.2573 73.8982C27.9516 73.8982 27.675 73.7226 27.5294 73.4354C27.3401 73.0524 27.3984 72.5897 27.7041 72.2865C29.9024 70.1003 31.5183 67.1802 32.1443 65.9355C32.1589 65.9036 32.1589 65.8717 32.1734 65.8557C32.2026 65.8079 32.2462 65.6483 32.2026 65.5525C32.1298 65.393 31.7804 65.1855 31.0525 65.1217C28.6358 64.9781 26.2192 65.8557 25.5349 66.127C25.2583 66.2387 24.9381 66.1589 24.7488 65.9196C24.545 65.6642 24.5013 65.3132 24.6323 65.026L25.2729 63.5898C25.0836 63.7334 24.8653 63.8292 24.6469 63.877L23.7734 64.0526C23.4095 64.1324 23.031 63.9887 22.7835 63.6696C22.5505 63.3345 22.4777 62.9037 22.6233 62.5207L26.423 51.9889C26.6414 51.4145 27.0927 51.0155 27.6459 50.9038C33.8039 49.6911 37.9967 51.9091 39.8747 53.2655C39.9766 51.3826 40.588 50.2975 41.1121 49.6911C40.952 49.6273 40.7627 49.5475 40.5298 49.4677C40.2386 49.3879 40.0203 49.0847 40.0057 48.7496C39.9911 48.4145 40.1513 48.1113 40.4424 47.9677C40.7918 47.7922 41.1849 47.7603 41.578 47.7603C41.5634 47.6486 41.5634 47.5369 41.5925 47.4252C41.6653 47.0901 41.9419 46.8507 42.2476 46.8348C44.4314 46.6911 46.1638 47.1858 47.4158 48.3347C48.4348 49.2762 48.857 50.4411 49.0172 51.0953C49.5995 51.0953 50.1673 51.0475 50.7641 50.9996C51.3173 50.9517 51.8851 50.9038 52.4674 50.9038C53.2681 50.8879 57.2425 50.7921 57.752 51.3187C58.378 51.973 57.6064 52.6751 56.9659 52.7708C56.9368 52.7708 56.9077 52.7868 56.8785 52.7868L49.716 54.1112C49.4248 54.1591 48.9153 54.3027 48.6387 54.4144C46.8771 55.0846 45.2757 56.5527 44.4314 58.2442C44.1111 58.9144 43.8345 59.6005 43.5433 60.3345C43.1357 61.3718 42.7135 62.4569 42.0875 63.4781C40.195 66.6057 37.3998 69.3184 34.0223 71.345C32.5811 72.2067 31.0816 72.9407 29.5675 73.4992C29.1745 73.6428 28.8251 73.7705 28.4902 73.8662C28.4029 73.8982 28.3301 73.8982 28.2573 73.8982Z" fill="#244E8E"/>
<path fill-rule="evenodd" clip-rule="evenodd" d="M44.213 50.3444C44.1548 50.2965 44.1257 50.2327 44.1111 50.137C44.1111 50.121 44.1111 50.105 44.1111 50.0891C44.1111 50.0572 44.1111 50.0412 44.1111 50.0093C44.1111 49.7061 44.3295 49.4668 44.6061 49.4668C44.7371 49.4668 44.8536 49.5146 44.9409 49.6104C44.9846 49.6423 45.0137 49.6742 45.0283 49.7221C45.0865 49.8178 45.1011 49.9136 45.1011 50.0093C45.1011 50.3125 44.8827 50.5678 44.6061 50.5678C44.4459 50.5678 44.3004 50.4721 44.213 50.3444ZM48.959 51.7965C48.6969 51.7965 48.464 51.5891 48.4058 51.3178C48.1146 50.137 46.9499 47.2168 42.2913 47.5359C42.2186 47.5359 42.204 47.6317 42.2477 47.6636C42.5243 47.871 42.9756 48.27 42.7426 48.6529C42.7281 48.6849 42.699 48.6849 42.6699 48.6849C42.4369 48.6051 41.3742 48.2859 40.7045 48.6051C40.6463 48.637 40.6463 48.7327 40.7191 48.7487C41.1121 48.8763 42.0875 49.2274 42.2186 49.5785C42.2331 49.6104 42.2186 49.6582 42.1894 49.6742C41.8837 49.8338 40.3114 50.8231 40.5298 54.5252C40.5444 54.589 40.4716 54.6209 40.4279 54.589C39.6418 53.855 35.2161 50.121 27.7624 51.5891C27.4421 51.6529 27.1655 51.8922 27.0345 52.2273L23.2348 62.7591C23.1329 63.0623 23.3658 63.3814 23.657 63.3176L24.5159 63.1261C24.8653 63.0623 25.1565 62.807 25.3166 62.4719L29.1891 53.839C29.3201 53.5518 29.5821 53.3444 29.8733 53.3124C31.693 53.0731 38.3315 52.5465 40.5444 56.5517C40.3842 56.3124 38.0549 52.722 30.4411 54.589C30.1499 54.6528 29.8878 54.8762 29.7423 55.1794L25.2293 65.3122C25.2001 65.3761 25.2584 65.4399 25.3166 65.4239C25.9717 65.1527 28.5339 64.2112 31.0962 64.3708C33.571 64.5942 32.7558 66.1739 32.7558 66.1739C32.0861 67.5143 30.4265 70.5302 28.1409 72.7962C27.9953 72.9398 28.1263 73.1951 28.301 73.1472C28.6504 73.0355 28.9998 72.9079 29.3492 72.7802C30.8487 72.2217 32.319 71.5196 33.7021 70.6898C36.7884 68.8388 39.569 66.2856 41.5343 63.0463C42.5388 61.4027 43.0193 59.5677 43.8636 57.8762C44.8099 55.9454 46.586 54.3975 48.4203 53.6954C48.7406 53.5678 49.2792 53.4241 49.6141 53.3603C51.7541 52.9773 53.8796 52.5784 56.0196 52.1795C56.3399 52.1156 57.3444 52.1156 57.3008 51.8125C57.1988 51.254 50.0508 51.7965 48.959 51.7965Z" fill="#99BE2B"/>
<path fill-rule="evenodd" clip-rule="evenodd" d="M95.2391 68.4724V69.1426H93.6959V74.6957H92.9535V69.1426H91.3958V68.4724H95.2391ZM101.062 68.4724V74.6957H100.32V71.8872H97.4374V74.6957H96.6949V68.4724H97.4374V71.217H100.32V68.4724H101.062ZM103.595 68.4724V74.6957H102.853V68.4724H103.595ZM109.855 74.6957H109.113L106.129 69.7489V74.6957H105.386V68.4724H106.129L109.113 73.4191V68.4724H109.855V74.6957ZM114.732 74.6957L112.389 71.8553V74.6957H111.646V68.4724H112.389V71.3606L114.732 68.4724H115.679L113.102 71.6L115.693 74.6957H114.732ZM119.973 74.0414H121.968V74.6957H119.231V68.4724H119.973V74.0414ZM126.641 73.3234H124.166L123.715 74.6957H122.929L124.981 68.5202H125.84L127.878 74.6957H127.092L126.641 73.3234ZM126.437 72.6531L125.403 69.5096L124.384 72.6531H126.437ZM133.774 74.6957H133.032L130.048 69.7489V74.6957H129.305V68.4724H130.048L133.032 73.4191V68.4724H133.774V74.6957ZM139.86 70.2755C139.714 69.9245 139.481 69.6372 139.175 69.4458C138.884 69.2383 138.535 69.1426 138.142 69.1426C137.749 69.1426 137.385 69.2383 137.065 69.4458C136.744 69.6372 136.497 69.9245 136.322 70.2915C136.133 70.6745 136.045 71.1053 136.045 71.584C136.045 72.0787 136.133 72.5095 136.322 72.8765C136.497 73.2436 136.744 73.5308 137.065 73.7223C137.385 73.9297 137.749 74.0255 138.142 74.0255C138.695 74.0255 139.146 73.834 139.51 73.4829C139.86 73.1159 140.078 72.6212 140.136 71.9989H137.865V71.3447H140.922V71.967C140.879 72.4776 140.733 72.9563 140.486 73.3712C140.238 73.8021 139.903 74.1372 139.496 74.3925C139.088 74.6318 138.637 74.7595 138.142 74.7595C137.618 74.7595 137.137 74.6159 136.701 74.3446C136.264 74.0733 135.914 73.7063 135.667 73.2117C135.419 72.7329 135.288 72.1904 135.288 71.584C135.288 70.9776 135.419 70.4351 135.667 69.9404C135.914 69.4617 136.264 69.0787 136.701 68.8075C137.137 68.5362 137.618 68.4085 138.142 68.4085C138.739 68.4085 139.277 68.5681 139.743 68.9032C140.209 69.2224 140.544 69.6851 140.748 70.2755H139.86ZM143.164 68.4724V72.4138C143.164 72.9723 143.281 73.3872 143.528 73.6425C143.776 73.9138 144.125 74.0574 144.562 74.0574C144.999 74.0574 145.334 73.9138 145.581 73.6425C145.828 73.3872 145.96 72.9723 145.96 72.4138V68.4724H146.687V72.4138C146.687 72.9244 146.6 73.3553 146.411 73.7223C146.222 74.0733 145.96 74.3287 145.639 74.5042C145.319 74.6797 144.955 74.7595 144.547 74.7595C144.154 74.7595 143.79 74.6797 143.47 74.5042C143.135 74.3287 142.888 74.0733 142.699 73.7223C142.509 73.3553 142.422 72.9244 142.422 72.4138V68.4724H143.164ZM151.826 73.3234H149.337L148.886 74.6957H148.1L150.152 68.5202H151.011L153.064 74.6957H152.278L151.826 73.3234ZM151.608 72.6531L150.574 69.5096L149.555 72.6531H151.608ZM158.785 70.2755C158.625 69.9245 158.407 69.6372 158.101 69.4458C157.81 69.2383 157.46 69.1426 157.053 69.1426C156.66 69.1426 156.31 69.2383 155.99 69.4458C155.67 69.6372 155.422 69.9245 155.233 70.2915C155.058 70.6745 154.971 71.1053 154.971 71.584C154.971 72.0787 155.058 72.5095 155.233 72.8765C155.422 73.2436 155.67 73.5308 155.99 73.7223C156.31 73.9297 156.66 74.0255 157.053 74.0255C157.606 74.0255 158.072 73.834 158.421 73.4829C158.785 73.1159 158.989 72.6212 159.047 71.9989H156.791V71.3447H159.848V71.967C159.804 72.4776 159.659 72.9563 159.411 73.3712C159.149 73.8021 158.829 74.1372 158.421 74.3925C158.014 74.6318 157.562 74.7595 157.053 74.7595C156.529 74.7595 156.048 74.6159 155.612 74.3446C155.189 74.0733 154.84 73.7063 154.592 73.2117C154.33 72.7329 154.214 72.1904 154.214 71.584C154.214 70.9776 154.33 70.4351 154.592 69.9404C154.84 69.4617 155.189 69.0787 155.612 68.8075C156.048 68.5362 156.529 68.4085 157.053 68.4085C157.664 68.4085 158.188 68.5681 158.654 68.9032C159.12 69.2224 159.455 69.6851 159.673 70.2755H158.785ZM162.09 69.1426V71.217H164.157V71.8872H162.09V74.0255H164.405V74.6957H161.347V68.4724H164.405V69.1426H162.09ZM166.297 74.7595C166.152 74.7595 166.035 74.6957 165.948 74.5999C165.846 74.4882 165.788 74.3606 165.788 74.201C165.788 74.0414 165.846 73.9138 165.948 73.8021C166.035 73.7063 166.152 73.6425 166.297 73.6425C166.443 73.6425 166.545 73.7063 166.647 73.8021C166.734 73.9138 166.792 74.0414 166.792 74.201C166.792 74.3606 166.734 74.4882 166.647 74.5999C166.545 74.6957 166.443 74.7595 166.297 74.7595ZM168.539 74.7595C168.394 74.7595 168.277 74.6957 168.19 74.5999C168.088 74.4882 168.044 74.3606 168.044 74.201C168.044 74.0414 168.088 73.9138 168.19 73.8021C168.277 73.7063 168.394 73.6425 168.539 73.6425C168.685 73.6425 168.787 73.7063 168.889 73.8021C168.976 73.9138 169.034 74.0414 169.034 74.201C169.034 74.3606 168.976 74.4882 168.889 74.5999C168.787 74.6957 168.685 74.7595 168.539 74.7595ZM176.211 68.4724V69.1426H174.668V74.6957H173.926V69.1426H172.368V68.4724H176.211ZM182.035 68.4724V74.6957H181.292V71.8872H178.395V74.6957H177.667V68.4724H178.395V71.217H181.292V68.4724H182.035ZM184.568 68.4724V74.6957H183.825V68.4724H184.568ZM190.828 74.6957H190.085L187.101 69.7489V74.6957H186.358V68.4724H187.101L190.085 73.4191V68.4724H190.828V74.6957ZM195.705 74.6957L193.361 71.8553V74.6957H192.618V68.4724H193.361V71.3606L195.705 68.4724H196.651L194.074 71.6L196.665 74.6957H195.705ZM200.931 68.4724V72.4138C200.931 72.9723 201.062 73.3872 201.309 73.6425C201.542 73.9138 201.892 74.0574 202.328 74.0574C202.765 74.0574 203.115 73.9138 203.362 73.6425C203.595 73.3872 203.726 72.9723 203.726 72.4138V68.4724H204.469V72.4138C204.469 72.9244 204.367 73.3553 204.177 73.7223C203.988 74.0733 203.741 74.3287 203.406 74.5042C203.086 74.6797 202.722 74.7595 202.328 74.7595C201.921 74.7595 201.557 74.6797 201.237 74.5042C200.916 74.3287 200.654 74.0733 200.465 73.7223C200.29 73.3553 200.188 72.9244 200.188 72.4138V68.4724H200.931ZM208.035 74.7595C207.657 74.7595 207.322 74.6957 207.031 74.5521C206.74 74.3925 206.507 74.201 206.332 73.9457C206.172 73.6744 206.084 73.3872 206.07 73.0361H206.871C206.885 73.3393 207.002 73.5787 207.191 73.7702C207.38 73.9776 207.671 74.0733 208.035 74.0733C208.385 74.0733 208.661 73.9776 208.865 73.7861C209.069 73.5946 209.171 73.3393 209.171 73.0361C209.171 72.7968 209.113 72.6053 208.996 72.4617C208.88 72.318 208.734 72.2063 208.545 72.1266C208.37 72.0468 208.123 71.967 207.831 71.8712C207.453 71.7595 207.147 71.6638 206.929 71.5521C206.696 71.4404 206.507 71.2808 206.347 71.0415C206.186 70.8181 206.099 70.5149 206.099 70.116C206.099 69.7809 206.186 69.4777 206.347 69.2224C206.507 68.9511 206.725 68.7596 207.002 68.616C207.293 68.4724 207.613 68.3926 207.992 68.3926C208.516 68.3926 208.952 68.5522 209.302 68.8394C209.637 69.1266 209.826 69.5096 209.87 70.0043H209.054C209.025 69.7649 208.909 69.5415 208.72 69.366C208.516 69.1904 208.239 69.0947 207.919 69.0947C207.599 69.0947 207.351 69.1904 207.162 69.366C206.958 69.5415 206.871 69.7809 206.871 70.1C206.871 70.3234 206.929 70.4989 207.045 70.6425C207.162 70.7862 207.293 70.8979 207.468 70.9776C207.642 71.0415 207.875 71.1372 208.195 71.233C208.559 71.3447 208.865 71.4564 209.098 71.5681C209.316 71.6798 209.52 71.8393 209.68 72.0787C209.84 72.3021 209.928 72.6053 209.928 73.0042C209.928 73.3074 209.855 73.5946 209.709 73.8659C209.564 74.1372 209.346 74.3446 209.054 74.5201C208.763 74.6797 208.428 74.7595 208.035 74.7595Z" fill="#244E8E"/>
</svg>
