<svg width="18" height="18" viewBox="0 0 18 18" fill="none" xmlns="http://www.w3.org/2000/svg">
<path d="M7.69203 1.97522L2.27395 5.49697C2.016 5.66463 1.88703 5.74846 1.84237 5.85477C1.80333 5.94768 1.80333 6.05239 1.84237 6.14529C1.88703 6.2516 2.016 6.33544 2.27395 6.5031L7.69203 10.0249C8.16546 10.3326 8.40218 10.4864 8.65723 10.5463C8.88268 10.5992 9.11732 10.5992 9.34277 10.5463C9.59782 10.4864 9.83454 10.3326 10.308 10.0249L15.7261 6.5031C15.984 6.33544 16.113 6.2516 16.1576 6.14529C16.1967 6.05239 16.1967 5.94768 16.1576 5.85477C16.113 5.74846 15.984 5.66463 15.7261 5.49697L10.308 1.97522C9.83454 1.66748 9.59782 1.51362 9.34277 1.45375C9.11732 1.40083 8.88268 1.40083 8.65723 1.45375C8.40218 1.51362 8.16546 1.66748 7.69203 1.97522L2.04601 5.64512C1.84651 5.7748 1.74676 5.83964 1.67449 5.92613C1.61051 6.00269 1.56245 6.09124 1.53313 6.18661C1.5 6.29434 1.5 6.41331 1.5 6.65126V12.15C1.5 13.4102 1.5 14.0402 1.74524 14.5215C1.96095 14.9449 2.30516 15.2891 2.72852 15.5048C3.20982 15.75 3.83988 15.75 5.1 15.75H12.9C14.1601 15.75 14.7902 15.75 15.2715 15.5048C15.6948 15.2891 16.039 14.9449 16.2548 14.5215C16.5 14.0402 16.5 13.4102 16.5 12.15V6.65126C16.5 6.41331 16.5 6.29434 16.4669 6.18661C16.4375 6.09124 16.3895 6.00269 16.3255 5.92613C16.2532 5.83964 16.1535 5.7748 15.954 5.64512L10.308 1.97522" stroke="#686868" stroke-width="1.5" stroke-linecap="round" stroke-linejoin="round"/>
</svg>
