<svg width="20" height="20" viewBox="0 0 20 20" fill="none" xmlns="http://www.w3.org/2000/svg">
<path d="M18.1166 9.22435C18.0749 8.79936 17.7166 8.48268 17.2916 8.48268H10.9999C10.5416 8.48268 10.1666 8.85768 10.1666 9.31601V10.741C10.1666 11.1994 10.5416 11.5744 10.9999 11.5744H14.7583C14.6666 12.341 14.1666 13.4994 13.0583 14.2744C12.3499 14.766 11.4083 15.1077 10.1666 15.1077C10.1083 15.1077 10.0583 15.1077 9.99992 15.0993C7.87492 15.0327 6.07492 13.6077 5.42492 11.6494C5.24992 11.1244 5.14992 10.5743 5.14992 9.99935C5.14992 9.42435 5.24992 8.86601 5.41659 8.34934C5.46659 8.19934 5.52492 8.04936 5.59159 7.89936C6.35825 6.17436 8.03325 4.95769 9.99992 4.89935C10.0499 4.89102 10.1083 4.89101 10.1666 4.89101C11.3583 4.89101 12.2499 5.28267 12.8749 5.716C13.1999 5.941 13.6333 5.89101 13.9166 5.61601L15.0749 4.48269C15.4416 4.12435 15.4083 3.516 14.9916 3.216C13.6666 2.241 12.0499 1.66602 10.1666 1.66602C10.1083 1.66602 10.0583 1.66602 9.99992 1.67436C6.80825 1.73269 4.06659 3.58269 2.72492 6.25769C2.15825 7.39102 1.83325 8.65768 1.83325 9.99935C1.83325 11.341 2.15825 12.6077 2.72492 13.741H2.73325C4.07492 16.416 6.81659 18.266 9.99992 18.3243C10.0583 18.3327 10.1083 18.3327 10.1666 18.3327C12.4166 18.3327 14.3083 17.591 15.6833 16.316C17.2583 14.8577 18.1666 12.7243 18.1666 10.1827C18.1666 9.82435 18.1499 9.51602 18.1166 9.22435Z" fill="#686868"/>
</svg>
